<mxfile host="app.diagrams.net" modified="2023-04-06T04:07:29.572Z" agent="Mozilla/5.0 (Windows NT 10.0; Win64; x64) AppleWebKit/537.36 (KHTML, like Gecko) Chrome/111.0.0.0 Safari/537.36 Edg/111.0.1661.62" etag="niIf2klA03FGV--x7TZb" version="21.1.4" type="github">
  <diagram name="Page-1" id="zIwf-oE_XvScDUhT01Yc">
    <mxGraphModel dx="1386" dy="828" grid="1" gridSize="10" guides="1" tooltips="1" connect="1" arrows="1" fold="1" page="1" pageScale="1" pageWidth="850" pageHeight="1100" math="0" shadow="0">
      <root>
        <mxCell id="0" />
        <mxCell id="1" parent="0" />
      </root>
    </mxGraphModel>
  </diagram>
</mxfile>
